<svg width="172" height="19" viewBox="0 0 172 19" fill="none" xmlns="http://www.w3.org/2000/svg">
<path d="M149.992 8.17908C150.404 9.2723 150.753 10.2071 151.038 10.9834C151.323 11.7439 151.553 12.3935 151.727 12.9322C151.902 12.647 152.092 12.3618 152.298 12.0766C152.504 11.7756 152.733 11.4429 152.987 11.0785C153.256 10.6982 153.557 10.2784 153.89 9.81891C154.239 9.35944 154.643 8.82075 155.102 8.20284L158.453 3.68736C158.817 3.18036 159.237 2.77634 159.713 2.47531C160.204 2.15844 160.782 2 161.447 2C162.065 2 162.588 2.1822 163.016 2.54661C163.46 2.89517 163.721 3.44178 163.8 4.18644L165.369 18.1607H160.473L159.926 12.6233C159.847 11.7202 159.784 10.928 159.736 10.2467C159.689 9.56541 159.657 8.89997 159.641 8.25037C159.467 8.53556 159.277 8.82867 159.071 9.1297C158.881 9.41489 158.659 9.73969 158.405 10.1041C158.168 10.4527 157.898 10.8329 157.597 11.2449C157.312 11.6568 156.987 12.1242 156.623 12.647L153.795 16.6397C153.51 17.0358 153.24 17.3526 152.987 17.5903C152.749 17.8121 152.504 17.9864 152.25 18.1131C151.997 18.2399 151.743 18.3191 151.49 18.3508C151.236 18.3983 150.959 18.4221 150.658 18.4221C150.357 18.4221 150.08 18.3983 149.826 18.3508C149.588 18.3191 149.367 18.2399 149.161 18.1131C148.955 17.9864 148.765 17.8121 148.59 17.5903C148.432 17.3526 148.281 17.0358 148.139 16.6397L146.713 12.6233C146.523 12.0846 146.348 11.6013 146.19 11.1736C146.047 10.7458 145.921 10.3655 145.81 10.0328C145.699 9.68424 145.596 9.36736 145.501 9.08217C145.421 8.79698 145.342 8.51972 145.263 8.25037C145.025 8.83659 144.748 9.50203 144.431 10.2467C144.114 10.9755 143.774 11.7677 143.409 12.6233L140.938 18.1607H136.113L142.673 4.18644C143.037 3.44178 143.504 2.89517 144.075 2.54661C144.645 2.1822 145.239 2 145.857 2C146.491 2 146.998 2.15052 147.378 2.45155C147.758 2.75258 148.052 3.16452 148.258 3.68736L149.992 8.17908Z" fill="#FAFDFF"/>
<path d="M130.79 8.60716C132.517 8.60716 133.824 8.91611 134.712 9.53402C135.615 10.1361 136.066 11.0313 136.066 12.2195C136.066 13.0751 135.924 13.8673 135.639 14.5961C135.353 15.3249 134.894 15.9587 134.26 16.4974C133.642 17.0202 132.834 17.4321 131.836 17.7332C130.854 18.0184 129.658 18.161 128.247 18.161H113.441L117.315 14.0733H129.364C130.03 14.0733 130.513 13.9624 130.814 13.7405C131.115 13.5187 131.266 13.1781 131.266 12.7186C131.266 12.0849 130.767 11.768 129.768 11.768H121.094C119.288 11.768 117.965 11.4194 117.125 10.7223C116.285 10.0252 115.865 9.09831 115.865 7.94172C115.865 7.13368 116.008 6.38902 116.293 5.70774C116.578 5.01062 117.03 4.40855 117.648 3.90155C118.282 3.37871 119.09 2.97469 120.072 2.6895C121.054 2.40431 122.243 2.26172 123.637 2.26172H137.445L133.547 6.39695H122.52C121.854 6.39695 121.371 6.49993 121.07 6.7059C120.769 6.89603 120.619 7.22875 120.619 7.70406C120.619 8.30612 121.126 8.60716 122.14 8.60716H130.79Z" fill="#FAFDFF"/>
<path d="M111.306 18.161H106.387L109.215 2.26172H114.111L111.306 18.161Z" fill="#FAFDFF"/>
<path d="M104.546 18.161H97.9634L95.159 13.9544H87.6015L86.8648 18.161H81.9453L83.3712 10.0331H97.2029C97.6148 10.0331 98.003 9.98556 98.3674 9.8905C98.7476 9.79544 99.0724 9.66077 99.3418 9.48649C99.627 9.3122 99.8488 9.09831 100.007 8.84481C100.182 8.57547 100.269 8.28236 100.269 7.96548C100.269 7.44264 100.055 7.05446 99.627 6.80096C99.1992 6.53162 98.605 6.39695 97.8445 6.39695H84.0129L87.958 2.26172H98.1773C99.0011 2.26172 99.8409 2.33302 100.696 2.47561C101.568 2.6182 102.352 2.87963 103.049 3.25988C103.762 3.62428 104.34 4.11544 104.784 4.73335C105.228 5.35126 105.45 6.13552 105.45 7.08615C105.45 7.79912 105.323 8.4804 105.069 9.13C104.832 9.7796 104.483 10.3658 104.024 10.8887C103.58 11.4115 103.041 11.8551 102.408 12.2195C101.774 12.5839 101.077 12.8374 100.316 12.98C100.538 13.186 100.784 13.4474 101.053 13.7643C101.338 14.0812 101.703 14.5169 102.146 15.0714L104.546 18.161Z" fill="#FAFDFF"/>
<path d="M81.0503 14.0733L77.1527 18.161H61.8477L64.6758 2.26172H83.0704L79.1491 6.39695H68.8585L68.5258 8.2982H81.0978L77.6756 11.9106H67.8841L67.5039 14.0733H81.0503Z" fill="#FAFDFF"/>
<path d="M63.1906 2.26172L59.2455 6.39695H53.5893L51.4979 18.161H46.5784L48.646 6.39695H41.1836L45.1287 2.26172H63.1906Z" fill="#FAFDFF"/>
<path d="M35.5638 8.60716C37.2908 8.60716 38.5979 8.91611 39.4851 9.53402C40.3882 10.1361 40.8398 11.0313 40.8398 12.2195C40.8398 13.0751 40.6972 13.8673 40.412 14.5961C40.1268 15.3249 39.6673 15.9587 39.0336 16.4974C38.4157 17.0202 37.6076 17.4321 36.6095 17.7332C35.6272 18.0184 34.431 18.161 33.0209 18.161H18.2148L22.0887 14.0733H34.1378C34.8033 14.0733 35.2865 13.9624 35.5876 13.7405C35.8886 13.5187 36.0391 13.1781 36.0391 12.7186C36.0391 12.0849 35.54 11.768 34.5419 11.768H25.8674C24.0612 11.768 22.7382 11.4194 21.8985 10.7223C21.0588 10.0252 20.6389 9.09831 20.6389 7.94172C20.6389 7.13368 20.7815 6.38902 21.0667 5.70774C21.3519 5.01062 21.8035 4.40855 22.4214 3.90155C23.0551 3.37871 23.8632 2.97469 24.8455 2.6895C25.8278 2.40431 27.0161 2.26172 28.4103 2.26172H42.2182L38.3206 6.39695H27.2933C26.6279 6.39695 26.1447 6.49993 25.8436 6.7059C25.5426 6.89603 25.3921 7.22875 25.3921 7.70406C25.3921 8.30612 25.8991 8.60716 26.9131 8.60716H35.5638Z" fill="#FAFDFF"/>
<path d="M14.5264 7.22208C13.1646 13.2388 13.2349 13.2409 13.1646 13.2388C13.0943 13.2368 12.6991 13.2388 12.5657 13.2388H11.0083L12.7106 17.8933H16.9097L19.8604 4.04342C20.2008 2.11352 19.8604 3.9299 20.2008 2C19.4064 2 16.2867 2.01069 15.4343 2H13.1646C12.4837 2.68114 12.4837 2.68114 11.8027 3.58933L0 17.8933H5.5609L14.5264 7.22208Z" fill="#FAFDFF"/>
<g clip-path="url(#clip0_2037_2819)">
<path d="M168.001 0.667969C169.842 0.667969 171.335 2.1603 171.335 4.0013C171.335 5.8423 169.842 7.33464 168.001 7.33464C166.16 7.33464 164.668 5.8423 164.668 4.0013C164.668 2.1603 166.16 0.667969 168.001 0.667969ZM168.001 1.33464C167.294 1.33464 166.616 1.61559 166.116 2.11568C165.616 2.61578 165.335 3.29406 165.335 4.0013C165.335 4.70855 165.616 5.38682 166.116 5.88692C166.616 6.38702 167.294 6.66797 168.001 6.66797C168.709 6.66797 169.387 6.38702 169.887 5.88692C170.387 5.38682 170.668 4.70855 170.668 4.0013C170.668 3.29406 170.387 2.61578 169.887 2.11568C169.387 1.61559 168.709 1.33464 168.001 1.33464ZM168.168 2.33464C168.423 2.33459 168.67 2.41779 168.873 2.57155C169.076 2.72531 169.223 2.9412 169.292 3.18628C169.36 3.43137 169.347 3.69222 169.254 3.92904C169.16 4.16586 168.992 4.36566 168.775 4.49797L169.624 5.66797H168.8L168.073 4.66797H167.335V5.66797H166.668V2.33464H168.168ZM168.168 3.0013H167.335V4.0013H168.168C168.292 4.0013 168.412 3.95505 168.504 3.87155C168.596 3.78805 168.654 3.6733 168.666 3.54964L168.668 3.5013C168.668 3.36869 168.615 3.24152 168.522 3.14775C168.428 3.05398 168.301 3.0013 168.168 3.0013Z" fill="#F3F7FC"/>
</g>
<defs>
<clipPath id="clip0_2037_2819">
<rect width="8" height="8" fill="white" transform="translate(164)"/>
</clipPath>
</defs>
</svg>
